<svg width="245" height="78" viewBox="0 0 245 78" fill="none" xmlns="http://www.w3.org/2000/svg">
<g filter="url(#filter0_d_29_9)">
<path d="M225 1H20C11.7157 1 5 7.71573 5 16V54C5 62.2843 11.7157 69 20 69H225C233.284 69 240 62.2843 240 54V16C240 7.71573 233.284 1 225 1Z" fill="white"/>
<path d="M225 1H20C11.7157 1 5 7.71573 5 16V54C5 62.2843 11.7157 69 20 69H225C233.284 69 240 62.2843 240 54V16C240 7.71573 233.284 1 225 1Z" stroke="#176553"/>
</g>
<defs>
<filter id="filter0_d_29_9" x="0.5" y="0.5" width="244" height="77" filterUnits="userSpaceOnUse" color-interpolation-filters="sRGB">
<feFlood flood-opacity="0" result="BackgroundImageFix"/>
<feColorMatrix in="SourceAlpha" type="matrix" values="0 0 0 0 0 0 0 0 0 0 0 0 0 0 0 0 0 0 127 0" result="hardAlpha"/>
<feOffset dy="4"/>
<feGaussianBlur stdDeviation="2"/>
<feComposite in2="hardAlpha" operator="out"/>
<feColorMatrix type="matrix" values="0 0 0 0 0 0 0 0 0 0 0 0 0 0 0 0 0 0 0.25 0"/>
<feBlend mode="normal" in2="BackgroundImageFix" result="effect1_dropShadow_29_9"/>
<feBlend mode="normal" in="SourceGraphic" in2="effect1_dropShadow_29_9" result="shape"/>
</filter>
</defs>
</svg>
