<svg width="230" height="64" viewBox="0 0 230 64" fill="none" xmlns="http://www.w3.org/2000/svg">
<g filter="url(#filter0_d_30_44)">
<path d="M210 1H20C11.7157 1 5 7.71573 5 16V40C5 48.2843 11.7157 55 20 55H210C218.284 55 225 48.2843 225 40V16C225 7.71573 218.284 1 210 1Z" fill="#176553"/>
<path d="M210 1H20C11.7157 1 5 7.71573 5 16V40C5 48.2843 11.7157 55 20 55H210C218.284 55 225 48.2843 225 40V16C225 7.71573 218.284 1 210 1Z" stroke="black"/>
</g>
<defs>
<filter id="filter0_d_30_44" x="0.5" y="0.5" width="229" height="63" filterUnits="userSpaceOnUse" color-interpolation-filters="sRGB">
<feFlood flood-opacity="0" result="BackgroundImageFix"/>
<feColorMatrix in="SourceAlpha" type="matrix" values="0 0 0 0 0 0 0 0 0 0 0 0 0 0 0 0 0 0 127 0" result="hardAlpha"/>
<feOffset dy="4"/>
<feGaussianBlur stdDeviation="2"/>
<feComposite in2="hardAlpha" operator="out"/>
<feColorMatrix type="matrix" values="0 0 0 0 0 0 0 0 0 0 0 0 0 0 0 0 0 0 0.25 0"/>
<feBlend mode="normal" in2="BackgroundImageFix" result="effect1_dropShadow_30_44"/>
<feBlend mode="normal" in="SourceGraphic" in2="effect1_dropShadow_30_44" result="shape"/>
</filter>
</defs>
</svg>
